<svg width="16" height="16" viewBox="0 0 16 16" fill="none" xmlns="http://www.w3.org/2000/svg">
<path d="M0.479296 15.5389C0.76289 15.8228 1.14658 15.9823 1.5465 15.9823C1.94642 15.9823 2.33011 15.8228 2.6137 15.5389L7.97286 10.0645L13.332 15.5389C13.7266 15.9366 14.3022 16.0918 14.8415 15.9463C15.3808 15.8008 15.8023 15.3763 15.9467 14.8331C16.0912 14.2899 15.9371 13.7101 15.5422 13.3127L10.1073 7.91462L15.5422 2.51658C15.876 2.12422 15.9896 1.58789 15.8441 1.0924C15.6986 0.596918 15.3136 0.209131 14.8217 0.0626161C14.3295 -0.0839119 13.7973 0.0304513 13.4075 0.366644L7.97285 5.76469L2.61369 0.366644C2.22416 0.0304506 1.69169 -0.0839119 1.19977 0.0626161C0.70786 0.209144 0.322865 0.596905 0.177405 1.0924C0.031933 1.58789 0.145473 2.12421 0.479244 2.51658L5.83841 7.91462L0.479244 13.3127C0.173604 13.6009 0 14.0039 0 14.4256C0 14.8476 0.173604 15.2504 0.479244 15.5389L0.479296 15.5389Z" fill="#121212"/>
</svg>
